<svg id="visual" viewBox="0 0 600 900" width="600" height="900" xmlns="http://www.w3.org/2000/svg" xmlns:xlink="http://www.w3.org/1999/xlink" version="1.1"><rect x="0" y="0" width="600" height="900" fill="#e8e8e8"></rect><path d="M0 563L11.2 564C22.3 565 44.7 567 66.8 584.5C89 602 111 635 133.2 642.7C155.3 650.3 177.7 632.7 200 623.5C222.3 614.3 244.7 613.7 266.8 617.5C289 621.3 311 629.7 333.2 623.3C355.3 617 377.7 596 400 601C422.3 606 444.7 637 466.8 657.2C489 677.3 511 686.7 533.2 670.5C555.3 654.3 577.7 612.7 588.8 591.8L600 571L600 901L588.8 901C577.7 901 555.3 901 533.2 901C511 901 489 901 466.8 901C444.7 901 422.3 901 400 901C377.7 901 355.3 901 333.2 901C311 901 289 901 266.8 901C244.7 901 222.3 901 200 901C177.7 901 155.3 901 133.2 901C111 901 89 901 66.8 901C44.7 901 22.3 901 11.2 901L0 901Z" fill="#000000" stroke-linecap="round" stroke-linejoin="miter"></path></svg>