<svg id="visual" viewBox="0 0 600 900" width="600" height="900" xmlns="http://www.w3.org/2000/svg" xmlns:xlink="http://www.w3.org/1999/xlink" version="1.1"><rect x="0" y="0" width="600" height="900" fill="#f9f9f9"></rect><path d="M0 619L11.2 619.8C22.3 620.7 44.7 622.3 66.8 636.8C89 651.3 111 678.7 133.2 685C155.3 691.3 177.7 676.7 200 669C222.3 661.3 244.7 660.7 266.8 663.8C289 667 311 674 333.2 668.8C355.3 663.7 377.7 646.3 400 650.7C422.3 655 444.7 681 466.8 697.8C489 714.7 511 722.3 533.2 708.7C555.3 695 577.7 660 588.8 642.5L600 625L600 901L588.8 901C577.7 901 555.3 901 533.2 901C511 901 489 901 466.8 901C444.7 901 422.3 901 400 901C377.7 901 355.3 901 333.2 901C311 901 289 901 266.8 901C244.7 901 222.3 901 200 901C177.7 901 155.3 901 133.2 901C111 901 89 901 66.8 901C44.7 901 22.3 901 11.2 901L0 901Z" fill="#000000" stroke-linecap="round" stroke-linejoin="miter"></path></svg>